<svg xmlns="http://www.w3.org/2000/svg" xmlns:xlink="http://www.w3.org/1999/xlink" width="100" zoomAndPan="magnify" viewBox="0 0 75 30.000001" height="40" preserveAspectRatio="xMidYMid meet" version="1.0"><defs><g/><clipPath id="60df142a0b"><path d="M 65 8 L 73.789062 8 L 73.789062 20 L 65 20 Z M 65 8 " clip-rule="nonzero"/></clipPath></defs><g fill="#ffffff" fill-opacity="1"><g transform="translate(1.232358, 16.064523)"><g><path d="M 3.15625 -7.65625 L 3.15625 -5.734375 L 6.265625 -5.734375 L 6.265625 -3.9375 L 3.15625 -3.9375 L 3.15625 -1.859375 L 6.671875 -1.859375 L 6.671875 0 L 0.84375 0 L 0.84375 -9.515625 L 6.671875 -9.515625 L 6.671875 -7.65625 Z M 3.15625 -7.65625 "/></g></g></g><g fill="#ffffff" fill-opacity="1"><g transform="translate(8.557946, 16.064523)"><g><path d="M 0.375 -3.796875 C 0.375 -4.566406 0.519531 -5.242188 0.8125 -5.828125 C 1.113281 -6.421875 1.515625 -6.875 2.015625 -7.1875 C 2.523438 -7.507812 3.09375 -7.671875 3.71875 -7.671875 C 4.207031 -7.671875 4.65625 -7.566406 5.0625 -7.359375 C 5.476562 -7.148438 5.804688 -6.867188 6.046875 -6.515625 L 6.046875 -10.03125 L 8.359375 -10.03125 L 8.359375 0 L 6.046875 0 L 6.046875 -1.078125 C 5.828125 -0.722656 5.515625 -0.4375 5.109375 -0.21875 C 4.710938 0 4.25 0.109375 3.71875 0.109375 C 3.09375 0.109375 2.523438 -0.0507812 2.015625 -0.375 C 1.515625 -0.695312 1.113281 -1.148438 0.8125 -1.734375 C 0.519531 -2.328125 0.375 -3.015625 0.375 -3.796875 Z M 6.046875 -3.78125 C 6.046875 -4.351562 5.882812 -4.804688 5.5625 -5.140625 C 5.238281 -5.484375 4.847656 -5.65625 4.390625 -5.65625 C 3.929688 -5.65625 3.539062 -5.488281 3.21875 -5.15625 C 2.894531 -4.820312 2.734375 -4.367188 2.734375 -3.796875 C 2.734375 -3.210938 2.894531 -2.75 3.21875 -2.40625 C 3.539062 -2.070312 3.929688 -1.90625 4.390625 -1.90625 C 4.847656 -1.90625 5.238281 -2.070312 5.5625 -2.40625 C 5.882812 -2.738281 6.046875 -3.195312 6.046875 -3.78125 Z M 6.046875 -3.78125 "/></g></g></g><g fill="#ffffff" fill-opacity="1"><g transform="translate(17.752173, 16.064523)"><g><path d="M 8.296875 -7.5625 L 8.296875 0 L 5.984375 0 L 5.984375 -1.03125 C 5.753906 -0.695312 5.4375 -0.425781 5.03125 -0.21875 C 4.632812 -0.0195312 4.191406 0.078125 3.703125 0.078125 C 3.117188 0.078125 2.601562 -0.046875 2.15625 -0.296875 C 1.71875 -0.554688 1.375 -0.929688 1.125 -1.421875 C 0.882812 -1.910156 0.765625 -2.484375 0.765625 -3.140625 L 0.765625 -7.5625 L 3.078125 -7.5625 L 3.078125 -3.453125 C 3.078125 -2.953125 3.207031 -2.5625 3.46875 -2.28125 C 3.726562 -2 4.082031 -1.859375 4.53125 -1.859375 C 4.976562 -1.859375 5.332031 -2 5.59375 -2.28125 C 5.851562 -2.5625 5.984375 -2.953125 5.984375 -3.453125 L 5.984375 -7.5625 Z M 8.296875 -7.5625 "/></g></g></g><g fill="#ffffff" fill-opacity="1"><g transform="translate(26.878689, 16.064523)"><g><path d="M 0.375 -3.796875 C 0.375 -4.566406 0.519531 -5.242188 0.8125 -5.828125 C 1.113281 -6.421875 1.515625 -6.875 2.015625 -7.1875 C 2.523438 -7.507812 3.09375 -7.671875 3.71875 -7.671875 C 4.25 -7.671875 4.710938 -7.5625 5.109375 -7.34375 C 5.515625 -7.125 5.828125 -6.835938 6.046875 -6.484375 L 6.046875 -7.5625 L 8.359375 -7.5625 L 8.359375 0 L 6.046875 0 L 6.046875 -1.0625 C 5.816406 -0.71875 5.5 -0.4375 5.09375 -0.21875 C 4.695312 0 4.234375 0.109375 3.703125 0.109375 C 3.085938 0.109375 2.523438 -0.0507812 2.015625 -0.375 C 1.515625 -0.695312 1.113281 -1.148438 0.8125 -1.734375 C 0.519531 -2.328125 0.375 -3.015625 0.375 -3.796875 Z M 6.046875 -3.78125 C 6.046875 -4.351562 5.882812 -4.804688 5.5625 -5.140625 C 5.238281 -5.484375 4.847656 -5.65625 4.390625 -5.65625 C 3.929688 -5.65625 3.539062 -5.488281 3.21875 -5.15625 C 2.894531 -4.820312 2.734375 -4.367188 2.734375 -3.796875 C 2.734375 -3.210938 2.894531 -2.75 3.21875 -2.40625 C 3.539062 -2.070312 3.929688 -1.90625 4.390625 -1.90625 C 4.847656 -1.90625 5.238281 -2.070312 5.5625 -2.40625 C 5.882812 -2.738281 6.046875 -3.195312 6.046875 -3.78125 Z M 6.046875 -3.78125 "/></g></g></g><g fill="#ffffff" fill-opacity="1"><g transform="translate(36.072916, 16.064523)"><g><path d="M 3.15625 -6.296875 C 3.425781 -6.710938 3.765625 -7.039062 4.171875 -7.28125 C 4.578125 -7.519531 5.03125 -7.640625 5.53125 -7.640625 L 5.53125 -5.1875 L 4.890625 -5.1875 C 4.316406 -5.1875 3.882812 -5.0625 3.59375 -4.8125 C 3.300781 -4.5625 3.15625 -4.128906 3.15625 -3.515625 L 3.15625 0 L 0.84375 0 L 0.84375 -7.5625 L 3.15625 -7.5625 Z M 3.15625 -6.296875 "/></g></g></g><g fill="#ffffff" fill-opacity="1"><g transform="translate(41.868393, 16.064523)"><g><path d="M 0.375 -3.796875 C 0.375 -4.566406 0.519531 -5.242188 0.8125 -5.828125 C 1.113281 -6.421875 1.515625 -6.875 2.015625 -7.1875 C 2.523438 -7.507812 3.09375 -7.671875 3.71875 -7.671875 C 4.207031 -7.671875 4.65625 -7.566406 5.0625 -7.359375 C 5.476562 -7.148438 5.804688 -6.867188 6.046875 -6.515625 L 6.046875 -10.03125 L 8.359375 -10.03125 L 8.359375 0 L 6.046875 0 L 6.046875 -1.078125 C 5.828125 -0.722656 5.515625 -0.4375 5.109375 -0.21875 C 4.710938 0 4.25 0.109375 3.71875 0.109375 C 3.09375 0.109375 2.523438 -0.0507812 2.015625 -0.375 C 1.515625 -0.695312 1.113281 -1.148438 0.8125 -1.734375 C 0.519531 -2.328125 0.375 -3.015625 0.375 -3.796875 Z M 6.046875 -3.78125 C 6.046875 -4.351562 5.882812 -4.804688 5.5625 -5.140625 C 5.238281 -5.484375 4.847656 -5.65625 4.390625 -5.65625 C 3.929688 -5.65625 3.539062 -5.488281 3.21875 -5.15625 C 2.894531 -4.820312 2.734375 -4.367188 2.734375 -3.796875 C 2.734375 -3.210938 2.894531 -2.75 3.21875 -2.40625 C 3.539062 -2.070312 3.929688 -1.90625 4.390625 -1.90625 C 4.847656 -1.90625 5.238281 -2.070312 5.5625 -2.40625 C 5.882812 -2.738281 6.046875 -3.195312 6.046875 -3.78125 Z M 6.046875 -3.78125 "/></g></g></g><g fill="#ffffff" fill-opacity="1"><g transform="translate(51.06262, 16.064523)"><g><path d="M 4.28125 0.109375 C 3.539062 0.109375 2.875 -0.046875 2.28125 -0.359375 C 1.6875 -0.679688 1.21875 -1.132812 0.875 -1.71875 C 0.539062 -2.300781 0.375 -2.988281 0.375 -3.78125 C 0.375 -4.550781 0.546875 -5.234375 0.890625 -5.828125 C 1.234375 -6.421875 1.703125 -6.875 2.296875 -7.1875 C 2.898438 -7.507812 3.570312 -7.671875 4.3125 -7.671875 C 5.050781 -7.671875 5.71875 -7.507812 6.3125 -7.1875 C 6.90625 -6.875 7.375 -6.421875 7.71875 -5.828125 C 8.0625 -5.234375 8.234375 -4.550781 8.234375 -3.78125 C 8.234375 -3 8.054688 -2.3125 7.703125 -1.71875 C 7.359375 -1.132812 6.882812 -0.679688 6.28125 -0.359375 C 5.6875 -0.046875 5.019531 0.109375 4.28125 0.109375 Z M 4.28125 -1.890625 C 4.71875 -1.890625 5.09375 -2.050781 5.40625 -2.375 C 5.71875 -2.707031 5.875 -3.175781 5.875 -3.78125 C 5.875 -4.382812 5.722656 -4.847656 5.421875 -5.171875 C 5.117188 -5.492188 4.75 -5.65625 4.3125 -5.65625 C 3.851562 -5.65625 3.472656 -5.492188 3.171875 -5.171875 C 2.878906 -4.859375 2.734375 -4.394531 2.734375 -3.78125 C 2.734375 -3.175781 2.878906 -2.707031 3.171875 -2.375 C 3.460938 -2.050781 3.832031 -1.890625 4.28125 -1.890625 Z M 4.28125 -1.890625 "/></g></g></g><g fill="#ffffff" fill-opacity="1"><g transform="translate(59.688128, 16.064523)"><g><path d="M 4.640625 -5.640625 L 3.390625 -5.640625 L 3.390625 0 L 1.0625 0 L 1.0625 -5.640625 L 0.234375 -5.640625 L 0.234375 -7.5625 L 1.0625 -7.5625 L 1.0625 -7.78125 C 1.0625 -8.707031 1.328125 -9.410156 1.859375 -9.890625 C 2.398438 -10.378906 3.1875 -10.625 4.21875 -10.625 C 4.382812 -10.625 4.507812 -10.617188 4.59375 -10.609375 L 4.59375 -8.640625 C 4.144531 -8.671875 3.832031 -8.609375 3.65625 -8.453125 C 3.476562 -8.296875 3.390625 -8.019531 3.390625 -7.625 L 3.390625 -7.5625 L 4.640625 -7.5625 Z M 4.640625 -5.640625 "/></g></g></g><g clip-path="url(#60df142a0b)"><g fill="#ffffff" fill-opacity="1"><g transform="translate(64.562824, 16.064523)"><g><path d="M 3.15625 -6.484375 C 3.382812 -6.835938 3.695312 -7.125 4.09375 -7.34375 C 4.488281 -7.5625 4.953125 -7.671875 5.484375 -7.671875 C 6.109375 -7.671875 6.671875 -7.507812 7.171875 -7.1875 C 7.679688 -6.875 8.082031 -6.421875 8.375 -5.828125 C 8.664062 -5.242188 8.8125 -4.566406 8.8125 -3.796875 C 8.8125 -3.015625 8.664062 -2.328125 8.375 -1.734375 C 8.082031 -1.148438 7.679688 -0.695312 7.171875 -0.375 C 6.671875 -0.0507812 6.109375 0.109375 5.484375 0.109375 C 4.960938 0.109375 4.5 0 4.09375 -0.21875 C 3.695312 -0.4375 3.382812 -0.71875 3.15625 -1.0625 L 3.15625 3.609375 L 0.84375 3.609375 L 0.84375 -7.5625 L 3.15625 -7.5625 Z M 6.46875 -3.796875 C 6.46875 -4.367188 6.304688 -4.820312 5.984375 -5.15625 C 5.660156 -5.488281 5.265625 -5.65625 4.796875 -5.65625 C 4.335938 -5.65625 3.945312 -5.484375 3.625 -5.140625 C 3.300781 -4.804688 3.140625 -4.351562 3.140625 -3.78125 C 3.140625 -3.195312 3.300781 -2.738281 3.625 -2.40625 C 3.945312 -2.070312 4.335938 -1.90625 4.796875 -1.90625 C 5.253906 -1.90625 5.644531 -2.070312 5.96875 -2.40625 C 6.300781 -2.75 6.46875 -3.210938 6.46875 -3.796875 Z M 6.46875 -3.796875 "/></g></g></g></g><g fill="#ffffff" fill-opacity="1"><g transform="translate(52.469316, 25.725825)"><g><path d="M 0.90625 0.046875 C 0.757812 0.046875 0.632812 0 0.53125 -0.09375 C 0.425781 -0.195312 0.375 -0.328125 0.375 -0.484375 C 0.375 -0.628906 0.425781 -0.75 0.53125 -0.84375 C 0.632812 -0.945312 0.757812 -1 0.90625 -1 C 1.039062 -1 1.15625 -0.945312 1.25 -0.84375 C 1.351562 -0.75 1.40625 -0.628906 1.40625 -0.484375 C 1.40625 -0.328125 1.351562 -0.195312 1.25 -0.09375 C 1.15625 0 1.039062 0.046875 0.90625 0.046875 Z M 0.90625 0.046875 "/></g></g></g><g fill="#ffffff" fill-opacity="1"><g transform="translate(54.257721, 25.725825)"><g><path d="M 1.4375 -3.796875 C 1.59375 -4.078125 1.820312 -4.304688 2.125 -4.484375 C 2.4375 -4.660156 2.785156 -4.75 3.171875 -4.75 C 3.597656 -4.75 3.976562 -4.644531 4.3125 -4.4375 C 4.644531 -4.238281 4.90625 -3.957031 5.09375 -3.59375 C 5.289062 -3.238281 5.390625 -2.820312 5.390625 -2.34375 C 5.390625 -1.875 5.289062 -1.453125 5.09375 -1.078125 C 4.90625 -0.710938 4.640625 -0.425781 4.296875 -0.21875 C 3.960938 -0.0195312 3.585938 0.078125 3.171875 0.078125 C 2.773438 0.078125 2.421875 -0.0078125 2.109375 -0.1875 C 1.804688 -0.363281 1.582031 -0.585938 1.4375 -0.859375 L 1.4375 0 L 0.65625 0 L 0.65625 -6.296875 L 1.4375 -6.296875 Z M 4.59375 -2.34375 C 4.59375 -2.695312 4.519531 -3.003906 4.375 -3.265625 C 4.238281 -3.523438 4.050781 -3.722656 3.8125 -3.859375 C 3.570312 -4.003906 3.304688 -4.078125 3.015625 -4.078125 C 2.734375 -4.078125 2.46875 -4.003906 2.21875 -3.859375 C 1.976562 -3.722656 1.785156 -3.519531 1.640625 -3.25 C 1.503906 -2.988281 1.4375 -2.6875 1.4375 -2.34375 C 1.4375 -1.988281 1.503906 -1.675781 1.640625 -1.40625 C 1.785156 -1.144531 1.976562 -0.945312 2.21875 -0.8125 C 2.46875 -0.675781 2.734375 -0.609375 3.015625 -0.609375 C 3.304688 -0.609375 3.570312 -0.675781 3.8125 -0.8125 C 4.050781 -0.945312 4.238281 -1.144531 4.375 -1.40625 C 4.519531 -1.675781 4.59375 -1.988281 4.59375 -2.34375 Z M 4.59375 -2.34375 "/></g></g></g><g fill="#ffffff" fill-opacity="1"><g transform="translate(60.01468, 25.725825)"><g><path d="M 1.4375 -6.296875 L 1.4375 0 L 0.65625 0 L 0.65625 -6.296875 Z M 1.4375 -6.296875 "/></g></g></g><g fill="#ffffff" fill-opacity="1"><g transform="translate(62.109672, 25.725825)"><g><path d="M 2.6875 0.078125 C 2.25 0.078125 1.851562 -0.0195312 1.5 -0.21875 C 1.144531 -0.414062 0.863281 -0.695312 0.65625 -1.0625 C 0.457031 -1.4375 0.359375 -1.863281 0.359375 -2.34375 C 0.359375 -2.820312 0.460938 -3.242188 0.671875 -3.609375 C 0.878906 -3.972656 1.160156 -4.253906 1.515625 -4.453125 C 1.878906 -4.648438 2.28125 -4.75 2.71875 -4.75 C 3.164062 -4.75 3.566406 -4.648438 3.921875 -4.453125 C 4.285156 -4.253906 4.566406 -3.972656 4.765625 -3.609375 C 4.972656 -3.242188 5.078125 -2.820312 5.078125 -2.34375 C 5.078125 -1.863281 4.96875 -1.4375 4.75 -1.0625 C 4.539062 -0.695312 4.253906 -0.414062 3.890625 -0.21875 C 3.535156 -0.0195312 3.132812 0.078125 2.6875 0.078125 Z M 2.6875 -0.609375 C 2.96875 -0.609375 3.226562 -0.671875 3.46875 -0.796875 C 3.71875 -0.929688 3.914062 -1.128906 4.0625 -1.390625 C 4.21875 -1.648438 4.296875 -1.96875 4.296875 -2.34375 C 4.296875 -2.71875 4.21875 -3.035156 4.0625 -3.296875 C 3.914062 -3.554688 3.722656 -3.75 3.484375 -3.875 C 3.253906 -4.007812 3 -4.078125 2.71875 -4.078125 C 2.4375 -4.078125 2.175781 -4.007812 1.9375 -3.875 C 1.695312 -3.75 1.503906 -3.554688 1.359375 -3.296875 C 1.222656 -3.035156 1.15625 -2.71875 1.15625 -2.34375 C 1.15625 -1.957031 1.222656 -1.632812 1.359375 -1.375 C 1.503906 -1.113281 1.691406 -0.921875 1.921875 -0.796875 C 2.160156 -0.671875 2.414062 -0.609375 2.6875 -0.609375 Z M 2.6875 -0.609375 "/></g></g></g><g fill="#ffffff" fill-opacity="1"><g transform="translate(67.560045, 25.725825)"><g><path d="M 2.578125 -4.75 C 2.984375 -4.75 3.335938 -4.660156 3.640625 -4.484375 C 3.941406 -4.304688 4.164062 -4.082031 4.3125 -3.8125 L 4.3125 -4.671875 L 5.09375 -4.671875 L 5.09375 0.109375 C 5.09375 0.523438 5.003906 0.898438 4.828125 1.234375 C 4.648438 1.566406 4.390625 1.828125 4.046875 2.015625 C 3.710938 2.203125 3.320312 2.296875 2.875 2.296875 C 2.257812 2.296875 1.742188 2.148438 1.328125 1.859375 C 0.921875 1.578125 0.679688 1.1875 0.609375 0.6875 L 1.375 0.6875 C 1.457031 0.96875 1.632812 1.191406 1.90625 1.359375 C 2.175781 1.535156 2.5 1.625 2.875 1.625 C 3.300781 1.625 3.644531 1.488281 3.90625 1.21875 C 4.175781 0.957031 4.3125 0.585938 4.3125 0.109375 L 4.3125 -0.875 C 4.164062 -0.601562 3.941406 -0.375 3.640625 -0.1875 C 3.335938 -0.0078125 2.984375 0.078125 2.578125 0.078125 C 2.160156 0.078125 1.78125 -0.0195312 1.4375 -0.21875 C 1.101562 -0.425781 0.835938 -0.710938 0.640625 -1.078125 C 0.453125 -1.453125 0.359375 -1.875 0.359375 -2.34375 C 0.359375 -2.820312 0.453125 -3.238281 0.640625 -3.59375 C 0.835938 -3.957031 1.101562 -4.238281 1.4375 -4.4375 C 1.78125 -4.644531 2.160156 -4.75 2.578125 -4.75 Z M 4.3125 -2.34375 C 4.3125 -2.695312 4.238281 -3.003906 4.09375 -3.265625 C 3.957031 -3.523438 3.769531 -3.722656 3.53125 -3.859375 C 3.289062 -4.003906 3.023438 -4.078125 2.734375 -4.078125 C 2.441406 -4.078125 2.175781 -4.003906 1.9375 -3.859375 C 1.695312 -3.722656 1.503906 -3.523438 1.359375 -3.265625 C 1.222656 -3.003906 1.15625 -2.695312 1.15625 -2.34375 C 1.15625 -1.988281 1.222656 -1.675781 1.359375 -1.40625 C 1.503906 -1.144531 1.695312 -0.945312 1.9375 -0.8125 C 2.175781 -0.675781 2.441406 -0.609375 2.734375 -0.609375 C 3.023438 -0.609375 3.289062 -0.675781 3.53125 -0.8125 C 3.769531 -0.945312 3.957031 -1.144531 4.09375 -1.40625 C 4.238281 -1.675781 4.3125 -1.988281 4.3125 -2.34375 Z M 4.3125 -2.34375 "/></g></g></g></svg>